<svg xmlns="http://www.w3.org/2000/svg" width="128" height="128" viewBox="0 0 128 128">
  <defs>
    <linearGradient id="shell" x1="33" y1="19" x2="93" y2="107" gradientUnits="userSpaceOnUse">
      <stop offset="0" stop-color="#66727a"/>
      <stop offset="0.5" stop-color="#34414a"/>
      <stop offset="1" stop-color="#141c23"/>
    </linearGradient>
    <linearGradient id="face" x1="42" y1="30" x2="84" y2="90" gradientUnits="userSpaceOnUse">
      <stop offset="0" stop-color="#3e515d"/>
      <stop offset="1" stop-color="#1f2d35"/>
    </linearGradient>
    <linearGradient id="paper" x1="53" y1="39" x2="75" y2="77" gradientUnits="userSpaceOnUse">
      <stop offset="0" stop-color="#e8ece5"/>
      <stop offset="1" stop-color="#a7b3af"/>
    </linearGradient>
    <linearGradient id="red" x1="44" y1="25" x2="91" y2="82" gradientUnits="userSpaceOnUse">
      <stop offset="0" stop-color="#ff6d55"/>
      <stop offset="1" stop-color="#b3262e"/>
    </linearGradient>
    <linearGradient id="cyan" x1="29" y1="41" x2="106" y2="96" gradientUnits="userSpaceOnUse">
      <stop offset="0" stop-color="#9efaff"/>
      <stop offset="1" stop-color="#1cb6c9"/>
    </linearGradient>
    <filter id="drop" x="-20%" y="-20%" width="140%" height="145%">
      <feDropShadow dx="0" dy="5" stdDeviation="3.2" flood-color="#000000" flood-opacity="0.55"/>
    </filter>
  </defs>

  <path d="M31 21 L74 16 L104 45 L98 90 L58 111 L24 86 L20 45 Z" fill="#080b0f" opacity="0.45"/>

  <g filter="url(#drop)">
    <path d="M29 19 L74 14 L106 44 L100 89 L59 112 L22 86 L18 43 Z"
          fill="#080b0f" stroke="#080b0f" stroke-width="9" stroke-linejoin="round"/>
    <path d="M29 19 L74 14 L106 44 L100 89 L59 112 L22 86 L18 43 Z"
          fill="url(#shell)" stroke="#1b2025" stroke-width="4.5" stroke-linejoin="round"/>

    <path d="M38 30 L72 26 L94 47 L90 78 L59 96 L32 78 L29 47 Z"
          fill="url(#face)" stroke="#101820" stroke-width="4" stroke-linejoin="round"/>
    <path d="M42 31 L69 28" stroke="#9ca9ad" stroke-width="3" stroke-linecap="round" opacity="0.42"/>
    <path d="M29 51 L27 66" stroke="#8d9ba0" stroke-width="3" stroke-linecap="round" opacity="0.25"/>

    <path d="M55 41 L75 38 L85 48 L82 68 L66 78 L48 69 L46 49 Z"
          fill="url(#paper)" stroke="#080b0f" stroke-width="5" stroke-linejoin="round"/>
    <path d="M55 41 L75 38 L85 48 L82 68 L66 78 L48 69 L46 49 Z"
          fill="url(#paper)" stroke="#5d6a68" stroke-width="2" stroke-linejoin="round"/>
    <path d="M55 52 L75 49 M54 61 L74 59 M62 44 L60 72 M71 43 L69 73"
          stroke="#70827b" stroke-width="2.2" stroke-linecap="round" opacity="0.65"/>

    <path d="M62 78 L62 91 L45 91 M62 78 L80 89 M62 78 L84 70"
          fill="none" stroke="#101820" stroke-width="9" stroke-linecap="round" stroke-linejoin="round"/>
    <path d="M62 78 L62 91 L45 91 M62 78 L80 89 M62 78 L84 70"
          fill="none" stroke="url(#cyan)" stroke-width="5" stroke-linecap="round" stroke-linejoin="round"/>

    <circle cx="44" cy="91" r="8.5" fill="#101820"/>
    <circle cx="44" cy="91" r="5.2" fill="url(#cyan)" stroke="#d5ffff" stroke-width="1.5"/>
    <circle cx="82" cy="90" r="8.5" fill="#101820"/>
    <circle cx="82" cy="90" r="5.2" fill="url(#cyan)" stroke="#d5ffff" stroke-width="1.5"/>
    <circle cx="86" cy="69" r="8.5" fill="#101820"/>
    <circle cx="86" cy="69" r="5.2" fill="url(#cyan)" stroke="#d5ffff" stroke-width="1.5"/>

    <path d="M41 35 L54 23 L82 53 L72 63 Z" fill="#080b0f" stroke="#080b0f" stroke-width="8" stroke-linejoin="round"/>
    <path d="M42 34 L54 24 L81 52 L72 61 Z" fill="url(#red)" stroke="#60161d" stroke-width="3.5" stroke-linejoin="round"/>
    <path d="M51 33 L72 54" stroke="#ffb2a6" stroke-width="3" stroke-linecap="round" opacity="0.58"/>

    <path d="M91 39 L104 52 L96 61" fill="none" stroke="#080b0f" stroke-width="9" stroke-linecap="round" stroke-linejoin="round"/>
    <path d="M91 39 L104 52 L96 61" fill="none" stroke="#c9d5d1" stroke-width="5" stroke-linecap="round" stroke-linejoin="round"/>
    <path d="M99 45 L107 37" stroke="#080b0f" stroke-width="8" stroke-linecap="round"/>
    <path d="M99 45 L107 37" stroke="#c9d5d1" stroke-width="4.2" stroke-linecap="round"/>
  </g>
</svg>
